<?xml version="1.0" encoding="utf-8"?>
<!-- Generator: Adobe Illustrator 17.1.0, SVG Export Plug-In . SVG Version: 6.00 Build 0)  -->
<!DOCTYPE svg PUBLIC "-//W3C//DTD SVG 1.1//EN" "http://www.w3.org/Graphics/SVG/1.1/DTD/svg11.dtd">
<svg version="1.1" id="Layer_1" xmlns="http://www.w3.org/2000/svg" xmlns:xlink="http://www.w3.org/1999/xlink" x="0px" y="0px"
	 viewBox="0 0 17.879 17.899" enable-background="new 0 0 17.879 17.899" xml:space="preserve">
<g>
	<defs>
		<rect id="SVGID_1_" x="0" y="0" width="17.879" height="17.899"/>
	</defs>
	<clipPath id="SVGID_2_">
		<use xlink:href="#SVGID_1_"  overflow="visible"/>
	</clipPath>
	<path clip-path="url(#SVGID_2_)" d="M0.29,15.032c-0.387,0.387-0.349,1.046,0.039,1.433l1.084,1.085
		c0.388,0.387,1.046,0.426,1.434,0.039l6.082-6.082l6.12,6.12c0.388,0.388,1.046,0.349,1.434-0.038l1.084-1.085
		c0.388-0.387,0.426-1.046,0.039-1.433L11.485,8.95l6.121-6.121c0.387-0.387,0.349-1.046-0.039-1.433l-1.084-1.085
		c-0.388-0.387-1.046-0.426-1.434-0.038l-6.12,6.12L2.847,0.311c-0.388-0.387-1.085-0.387-1.472,0L0.29,1.396
		c-0.387,0.387-0.387,1.085,0,1.472L6.372,8.95L0.29,15.032z"/>
</g>
</svg>
