<?xml version="1.0" encoding="utf-8"?>
<!-- Generator: Adobe Illustrator 17.1.0, SVG Export Plug-In . SVG Version: 6.00 Build 0)  -->
<!DOCTYPE svg PUBLIC "-//W3C//DTD SVG 1.1//EN" "http://www.w3.org/Graphics/SVG/1.1/DTD/svg11.dtd">
<svg version="1.1" id="Layer_1" xmlns="http://www.w3.org/2000/svg" xmlns:xlink="http://www.w3.org/1999/xlink" x="0px" y="0px"
	 viewBox="0 0 82.5 103.75" enable-background="new 0 0 82.5 103.75" xml:space="preserve">
<g>
	<path d="M73.652,97.376c-3.595,3.241-8.476,4.862-14.641,4.862c-3.349,0-6.581-0.502-9.699-1.506s-7.286-2.652-12.5-4.941
		c-5.216-2.291-9.427-3.965-12.633-5.021c-0.493-0.142-0.96-0.273-1.4-0.396c-0.441-0.124-0.838-0.238-1.189-0.344
		c-3.171,1.057-6.166,1.586-8.985,1.586c-3.348,0-5.021-0.723-5.021-2.168c0-1.515,1.955-2.271,5.866-2.271
		c2.607,0,5.32,0.299,8.14,0.898c1.374-0.354,2.625-0.759,3.753-1.217c1.127-0.458,2.563-1.083,4.308-1.876
		c1.744-0.792,3.127-1.384,4.149-1.771c-6.097-0.6-11.417-2.527-15.963-5.787c-4.545-3.26-8.052-7.717-10.518-13.373
		c-2.467-5.655-3.7-12.27-3.7-19.847c0-7.963,1.462-15.011,4.388-21.142c2.924-6.131,6.994-10.888,12.209-14.271
		s11.152-5.074,17.812-5.074c6.871,0,12.887,1.551,18.05,4.651c5.161,3.101,9.161,7.603,11.998,13.504
		c2.836,5.902,4.255,12.923,4.255,21.062c0,7.506-1.305,14.201-3.912,20.085c-2.607,5.886-6.255,10.589-10.94,14.112
		c-4.687,3.523-10.061,5.566-16.121,6.131v0.053c-1.762,0.212-3.312,0.537-4.651,0.979c-1.339,0.439-3.145,1.145-5.417,2.113
		s-4.255,1.7-5.946,2.193c7.928,1.586,14.702,2.846,20.322,3.779s10.28,1.4,13.98,1.4c5.145,0,9.214-0.748,12.209-2.246
		s5.32-3.885,6.978-7.161l1.639,0.634C78.85,90.539,76.576,94.662,73.652,97.376z M17.573,63.602
		c2.114,5.709,4.995,10.113,8.642,13.214c3.647,3.101,7.69,4.651,12.13,4.651c4.616,0,8.677-1.611,12.184-4.836
		c3.506-3.225,6.21-7.717,8.113-13.479c1.902-5.761,2.854-12.359,2.854-19.794c0-7.505-1.057-14.112-3.171-19.82
		c-2.114-5.708-4.986-10.113-8.615-13.214c-3.63-3.1-7.664-4.651-12.104-4.651c-4.617,0-8.687,1.612-12.21,4.836
		s-6.236,7.717-8.14,13.478c-1.902,5.761-2.854,12.36-2.854,19.794C14.401,51.287,15.459,57.894,17.573,63.602z"/>
</g>
<g>
	<path fill="#F47A50" d="M30.687,36.949c-1.16,1.451-1.74,2.92-1.74,4.408c0,0.631,0.075,1.173,0.227,1.627
		c0.857-0.681,1.816-1.021,2.876-1.021c1.387,0,2.56,0.448,3.519,1.343c0.958,0.896,1.438,2.1,1.438,3.613
		c0,0.934-0.227,1.779-0.681,2.535c-0.454,0.758-1.06,1.35-1.816,1.779c-0.757,0.429-1.577,0.643-2.459,0.643
		c-1.993,0-3.52-0.819-4.578-2.459c-0.884-1.362-1.324-3.064-1.324-5.108c0-2.598,0.662-4.924,1.986-6.98
		c1.324-2.056,3.322-3.714,5.997-4.976l0.719,1.4C33.233,34.433,31.847,35.499,30.687,36.949z M43.854,36.949
		c-1.161,1.451-1.74,2.92-1.74,4.408c0,0.631,0.075,1.173,0.227,1.627c0.883-0.681,1.841-1.021,2.876-1.021
		c1.412,0,2.592,0.448,3.537,1.343c0.946,0.896,1.419,2.1,1.419,3.613c0,1.414-0.479,2.592-1.438,3.538
		c-0.959,0.946-2.132,1.419-3.519,1.419c-1.993,0-3.52-0.819-4.578-2.459c-0.884-1.362-1.325-3.064-1.325-5.108
		c0-2.598,0.663-4.924,1.987-6.98c1.324-2.056,3.322-3.714,5.996-4.976l0.72,1.4C46.4,34.433,45.014,35.499,43.854,36.949z"/>
</g>
</svg>
